<svg class="icon" style="width: 1em;height: 1em;vertical-align: middle;fill: #09bb07;overflow: hidden;" viewBox="0 0 1024 1024" version="1.1" xmlns="http://www.w3.org/2000/svg" p-id="1747"><path d="M960 520.64c0-2.88 0.32-5.76 0.32-8.64s-0.32-5.76-0.32-8.64zM890.88 576c-30.72 181.44-188.48 320-378.24 320S165.12 757.44 134.4 576H69.76c31.04 216.96 217.28 384 442.88 384s411.84-167.04 442.88-384zM134.4 448c30.72-181.44 188.48-320 378.24-320s347.52 138.56 378.24 320h64.64c-31.04-216.96-217.28-384-442.88-384S100.8 231.04 69.76 448z" p-id="1748"></path><path d="M896 448.288v-256h64v256zM64 832.288v-256h64v256z" p-id="1749"></path><path d="M363.52 569.28l87.36-17.6c8 48 31.36 71.68 70.08 71.68 30.4-1.28 46.08-12.8 47.36-34.88-1.28-17.6-11.84-29.76-31.36-36.8-16.32-7.04-38.08-13.44-64.64-19.2-65.28-15.04-96.96-48.32-94.4-99.84 5.76-64 49.6-97.92 131.2-101.44 84.16 0 133.12 34.88 146.88 104.96l-85.76 21.12c-8.32-38.4-28.16-57.28-59.52-56-23.36 1.28-36.16 10.56-38.4 28.16s14.72 29.76 50.88 36.8c32.64 7.04 59.52 16.32 80.64 28.16 37.44 21.12 56.64 51.84 57.6 92.8-2.24 68.8-48.32 103.68-138.24 104.96-90.24 1.92-143.36-38.72-159.68-122.88z" p-id="1750"></path><path d="M480.64 292.48h64v64h-64zM480.64 672.96h64v57.28h-64z" p-id="1751"></path></svg>